<svg xmlns="http://www.w3.org/2000/svg" xmlns:xlink="http://www.w3.org/1999/xlink" width="200" height="49" viewBox="0 0 200 49">
  <metadata><?xpacket begin="﻿" id="W5M0MpCehiHzreSzNTczkc9d"?>
<x:xmpmeta xmlns:x="adobe:ns:meta/" x:xmptk="Adobe XMP Core 5.6-c142 79.160924, 2017/07/13-01:06:39        ">
   <rdf:RDF xmlns:rdf="http://www.w3.org/1999/02/22-rdf-syntax-ns#">
      <rdf:Description rdf:about=""/>
   </rdf:RDF>
</x:xmpmeta>
                                                                                                    
                                                                                                    
                                                                                                    
                                                                                                    
                                                                                                    
                                                                                                    
                                                                                                    
                                                                                                    
                                                                                                    
                                                                                                    
                                                                                                    
                                                                                                    
                                                                                                    
                                                                                                    
                                                                                                    
                                                                                                    
                                                                                                    
                                                                                                    
                                                                                                    
                                                                                                    
                           
<?xpacket end="w"?></metadata>
<defs>
    <style>
      .cls-1 {
        fill: #fff;
        opacity: 0.6;
        filter: url(#filter);
      }

      .cls-1, .cls-2, .cls-3 {
        fill-rule: evenodd;
      }

      .cls-2 {
        fill: #e9eef5;
        opacity: 0.5;
        filter: url(#filter-2);
      }

      .cls-3 {
        fill: #2a2a2a;
      }
    </style>
    <filter id="filter" x="68.625" y="30" width="20.813" height="36.313" filterUnits="userSpaceOnUse">
      <feFlood result="flood" flood-color="#818181"/>
      <feComposite result="composite" operator="in" in2="SourceGraphic"/>
      <feBlend result="blend" in2="SourceGraphic"/>
    </filter>
    <filter id="filter-2" x="85.813" y="30" width="18.094" height="19.781" filterUnits="userSpaceOnUse">
      <feFlood result="flood" flood-color="#aaa"/>
      <feComposite result="composite" operator="in" in2="SourceGraphic"/>
      <feBlend result="blend" in2="SourceGraphic"/>
    </filter>
  </defs>
  <path id="Y_copy" data-name="Y copy" class="cls-1" d="M76.77,30H68.627v0.311L82.58,51.324v15h6.847v-15Z" transform="translate(-50 -30)"/>
  <path id="Y_copy_2" data-name="Y copy 2" class="cls-2" d="M90.49,49.778L103.9,30.307V30H95.651L85.828,45.265Z" transform="translate(-50 -30)"/>
  <path id="Text_copy" data-name="Text copy" class="cls-3" d="M117.9,49.794a8.889,8.889,0,0,0-2.542-1.4,16.138,16.138,0,0,0-2.949-.743c-1.02-.155-2.013-0.268-2.992-0.319a8.307,8.307,0,0,1-3.612-.855,2.143,2.143,0,0,1-1.159-1.944,2.071,2.071,0,0,1,1.2-1.874,7.3,7.3,0,0,1,3.465-.666,10.26,10.26,0,0,1,3.4.5,7.94,7.94,0,0,1,2.932,1.779l3.527-4.145a13.3,13.3,0,0,0-3.009-2.022,12.427,12.427,0,0,0-3.251-1.054,20.887,20.887,0,0,0-3.7-.294,17.06,17.06,0,0,0-2.914.261,14.66,14.66,0,0,0-2.9.845,9.719,9.719,0,0,0-2.516,1.513,7.2,7.2,0,0,0-1.814,8.379,6.459,6.459,0,0,0,1.693,2.177,9.53,9.53,0,0,0,2.438,1.459,15.573,15.573,0,0,0,2.854.873,23.567,23.567,0,0,0,2.957.406,15.188,15.188,0,0,1,2.93.4,3.4,3.4,0,0,1,1.643.865,1.975,1.975,0,0,1,.509,1.434A2.369,2.369,0,0,1,113.42,57a4.19,4.19,0,0,1-1.694,1.072,6.26,6.26,0,0,1-2.257.354,12.559,12.559,0,0,1-2.326-.293,16.529,16.529,0,0,1-2.473-.754,15.109,15.109,0,0,1-2.273-1.122,8.14,8.14,0,0,1-1.746-1.408l-3.113,4.508a14.779,14.779,0,0,0,2.853,2.35,13.228,13.228,0,0,0,2.947,1.391,15.841,15.841,0,0,0,3,.654,24.575,24.575,0,0,0,3.028.165,15.765,15.765,0,0,0,4.806-.683,9.887,9.887,0,0,0,3.433-1.823,7.556,7.556,0,0,0,2.758-5.89,8.167,8.167,0,0,0-.675-3.429A6.362,6.362,0,0,0,117.9,49.794Zm-47.54,0a8.873,8.873,0,0,0-2.541-1.4,16.121,16.121,0,0,0-2.949-.743c-1.019-.155-2.014-0.268-2.99-0.319a8.31,8.31,0,0,1-3.614-.855A2.15,2.15,0,0,1,57.1,44.534a2.077,2.077,0,0,1,1.2-1.874,7.294,7.294,0,0,1,3.466-.666,10.283,10.283,0,0,1,3.4.5A7.951,7.951,0,0,1,68.1,44.275l3.528-4.145a13.327,13.327,0,0,0-3.01-2.022,12.436,12.436,0,0,0-3.25-1.054,20.911,20.911,0,0,0-3.7-.294,17.048,17.048,0,0,0-2.912.261,14.628,14.628,0,0,0-2.906.845,9.7,9.7,0,0,0-2.514,1.513,6.907,6.907,0,0,0-1.782,2.262,7,7,0,0,0-.674,3.1,6.92,6.92,0,0,0,.638,3.014,6.455,6.455,0,0,0,1.694,2.177,9.569,9.569,0,0,0,2.439,1.459,15.6,15.6,0,0,0,2.853.873,23.594,23.594,0,0,0,2.957.406,15.217,15.217,0,0,1,2.931.4,3.4,3.4,0,0,1,1.641.865,1.977,1.977,0,0,1,.51,1.434A2.367,2.367,0,0,1,65.88,57a4.171,4.171,0,0,1-1.694,1.072,6.26,6.26,0,0,1-2.258.354,12.562,12.562,0,0,1-2.325-.293,16.421,16.421,0,0,1-2.471-.754,14.976,14.976,0,0,1-2.275-1.122,8.158,8.158,0,0,1-1.747-1.408L50,59.357a14.731,14.731,0,0,0,2.852,2.35A13.222,13.222,0,0,0,55.8,63.1a15.785,15.785,0,0,0,3,.654,24.52,24.52,0,0,0,3.025.165,15.767,15.767,0,0,0,4.807-.683,9.875,9.875,0,0,0,3.432-1.823,7.546,7.546,0,0,0,2.758-5.89,8.122,8.122,0,0,0-.674-3.429A6.325,6.325,0,0,0,70.359,49.794Zm66.275,7.855a5.322,5.322,0,0,1-.667.044,3.627,3.627,0,0,1-1.754-.4,2.861,2.861,0,0,1-1.172-1.222,4.434,4.434,0,0,1-.426-2.041V42.882h4.054a14.4,14.4,0,0,1,3.376-4.821c0.251-.234.511-0.458,0.777-0.672h-8.154V30.062l-6.39.682v6.644H121.46v5.494h4.818V54.027a11.349,11.349,0,0,0,1.162,5.346,7.189,7.189,0,0,0,3.212,3.157,10.114,10.114,0,0,0,4.9.916,16.211,16.211,0,0,0,1.824-.15,12.794,12.794,0,0,0,1.71-.347c0.32-.09.645-0.194,0.98-0.31l-0.172-.166A14.359,14.359,0,0,1,136.634,57.649Zm72.813-21.359c-0.22-.006-0.435-0.028-0.652-0.024a14.345,14.345,0,0,0-5.094.907,12.4,12.4,0,0,0-4.154,2.607,11.828,11.828,0,0,0-2.809,4.122,14.136,14.136,0,0,0-1.031,5.441,14.384,14.384,0,0,0,1.605,6.939,10.9,10.9,0,0,0,4.5,4.464,14.8,14.8,0,0,0,6.979,1.569,9.446,9.446,0,0,1,2.373.3,6.94,6.94,0,0,1,2.094.951,4.737,4.737,0,0,1,1.5,1.612,4.635,4.635,0,0,1,.576,2.31,5.207,5.207,0,0,1-.88,3.018,5.4,5.4,0,0,1-2.338,1.881,8.178,8.178,0,0,1-3.325.647,8.472,8.472,0,0,1-2.6-.392,6.921,6.921,0,0,1-2.154-1.126,5.311,5.311,0,0,1-1.459-1.749,4.952,4.952,0,0,1-.541-2.278h-6.334a11.259,11.259,0,0,0,1,4.734,10.384,10.384,0,0,0,2.739,3.626,12.469,12.469,0,0,0,4.153,2.328,17.011,17.011,0,0,0,10.384.016,11.925,11.925,0,0,0,4.093-2.283,10.314,10.314,0,0,0,2.686-3.616,11.759,11.759,0,0,0,.968-4.8,10.926,10.926,0,0,0-.425-3.2,7.82,7.82,0,0,0-1.624-2.893,10.552,10.552,0,0,0-3.292-2.435,8.418,8.418,0,0,0,2.645-1.874,9.312,9.312,0,0,0,1.667-2.467,11.747,11.747,0,0,0,.881-2.7,12.97,12.97,0,0,0,.252-2.58,12.315,12.315,0,0,0-.609-4.037,14.546,14.546,0,0,0-1.561-3.241h2.36v-5.8H209.447v0.027Zm4.076,7.753a6.716,6.716,0,0,1,1.439,2.283,8.4,8.4,0,0,1,.535,3.017,8.276,8.276,0,0,1-.535,3,6.58,6.58,0,0,1-1.439,2.25,6.289,6.289,0,0,1-2.135,1.421,6.762,6.762,0,0,1-2.593.5,7.093,7.093,0,0,1-2.625-.489,6.375,6.375,0,0,1-2.146-1.4,6.51,6.51,0,0,1-1.451-2.259,8.4,8.4,0,0,1-.532-3.015,8.581,8.581,0,0,1,.532-3.035,6.75,6.75,0,0,1,1.451-2.292,6.323,6.323,0,0,1,2.146-1.438,6.971,6.971,0,0,1,5.218,0A6.4,6.4,0,0,1,213.523,44.042Zm-53.805-3.148A7.2,7.2,0,0,0,157.7,38.67a9.713,9.713,0,0,0-2.863-1.448,10.953,10.953,0,0,0-3.342-.514,15.752,15.752,0,0,0-5.282.836A12.018,12.018,0,0,0,141.94,40.1a11.714,11.714,0,0,0-2.864,4.239,15.809,15.809,0,0,0-1.039,5.869,16.643,16.643,0,0,0,1,5.964,11.685,11.685,0,0,0,2.785,4.3,11.417,11.417,0,0,0,4.207,2.6,15.46,15.46,0,0,0,5.305.844,11.32,11.32,0,0,0,2.323-.3,11.922,11.922,0,0,0,2.4-.856,9.556,9.556,0,0,0,2.138-1.4,6.456,6.456,0,0,0,1.519-1.987l0.313,3.768h6.024v-25.8h-6.126ZM159.142,53.1a7.622,7.622,0,0,1-1.415,2.511,6.8,6.8,0,0,1-2.356,1.771,8.011,8.011,0,0,1-3.3.671,8.359,8.359,0,0,1-2.986-.534,7.254,7.254,0,0,1-2.427-1.541,7.062,7.062,0,0,1-1.631-2.469,9.352,9.352,0,0,1,0-6.6,6.964,6.964,0,0,1,1.631-2.451,7.233,7.233,0,0,1,2.427-1.526,8.41,8.41,0,0,1,2.986-.523,7.916,7.916,0,0,1,3.3.672,6.752,6.752,0,0,1,2.356,1.771,7.536,7.536,0,0,1,1.415,2.51A8.96,8.96,0,0,1,159.142,53.1Zm31.766-12.9a10.033,10.033,0,0,0-3.475-2.451,10.894,10.894,0,0,0-4.274-.837,10.343,10.343,0,0,0-4.481.976,14.628,14.628,0,0,0-4.006,2.9l-0.417-3.506h-5.708V63.133h6.335V49.946a8.111,8.111,0,0,1,.481-2.78,7,7,0,0,1,1.345-2.3A6.307,6.307,0,0,1,178.8,43.3a6.431,6.431,0,0,1,2.686-.576,6.239,6.239,0,0,1,3.431.916,5.643,5.643,0,0,1,2.093,2.459,8.386,8.386,0,0,1,.708,3.532v13.5H194.1V49.58a16.182,16.182,0,0,0-.856-5.4A11.461,11.461,0,0,0,190.908,40.205Zm58.138,4.841a12.817,12.817,0,0,0-2.724-4.275,12.456,12.456,0,0,0-4.259-2.895,14.406,14.406,0,0,0-5.577-1.063,14.211,14.211,0,0,0-5.55,1.063,12.19,12.19,0,0,0-4.208,2.895,12.641,12.641,0,0,0-2.661,4.275,14.657,14.657,0,0,0-.935,5.213,15.15,15.15,0,0,0,.916,5.233,12.675,12.675,0,0,0,2.645,4.273,12.257,12.257,0,0,0,4.216,2.886,15.572,15.572,0,0,0,11.268,0,12.251,12.251,0,0,0,4.233-2.886,12.544,12.544,0,0,0,2.661-4.273A14.7,14.7,0,0,0,250,50.26,14.534,14.534,0,0,0,249.046,45.046ZM243.118,53.1a7.356,7.356,0,0,1-1.327,2.424A6.286,6.286,0,0,1,239.6,57.21a7.7,7.7,0,0,1-6.127,0,6.242,6.242,0,0,1-2.191-1.682,7.547,7.547,0,0,1-1.329-2.424,9.452,9.452,0,0,1-.433-2.844,9.1,9.1,0,0,1,.442-2.825,7.678,7.678,0,0,1,1.336-2.451,6.511,6.511,0,0,1,2.2-1.718,7.054,7.054,0,0,1,3.036-.645,6.7,6.7,0,0,1,2.908.645,6.923,6.923,0,0,1,2.216,1.718,8.037,8.037,0,0,1,1.406,2.451,8.361,8.361,0,0,1,.49,2.825A9.362,9.362,0,0,1,243.118,53.1Z" transform="translate(-50 -30)"/>
</svg>
